<?xml version="1.0" encoding="utf-8"?>
<!-- Generator: Adobe Illustrator 22.1.0, SVG Export Plug-In . SVG Version: 6.00 Build 0)  -->
<svg version="1.1" id="Artwork" xmlns="http://www.w3.org/2000/svg" xmlns:xlink="http://www.w3.org/1999/xlink" x="0px" y="0px"
	 viewBox="0 0 25.6 25.6" style="enable-background:new 0 0 25.6 25.6;" xml:space="preserve">
<style type="text/css">
	.st0{fill-rule:evenodd;clip-rule:evenodd;fill:#F99E49;}
</style>
<g>
	<path class="st0" d="M1,8.9c0.1-0.7,0.1-0.7,0.7-0.4c0.5,0.2,1,0.5,1.5,0.7c0.3,0.1,0.6,0.4,1,0.2c0.1-0.1,0.4,0.1,0.6,0.2
		c0.7,0.3,1.3,0.7,2,0.8c0,0,0.1,0,0.1,0c0.5,0.8,1.5,0.6,2.2,1c0.7,0.4,1.5,0.8,2.2,1.1c0,0,0,0,0.1,0c0-0.2-0.1-0.3-0.1-0.5
		c-0.8-2-1.6-4-2.4-6.1c-0.2-0.5-0.3-1-0.5-1.5c0-0.1-0.1-0.3,0-0.4c0.2-0.4,0-0.8-0.2-1.2l0,0c-0.1-0.3,0-0.6-0.4-0.8
		C7.5,2.1,7.3,1.5,7.2,1.1C7.1,0.7,7.4,0.4,7.5,0C7.8-0.1,7.9,0.2,8,0.4c0.3,0.8,0.7,1.5,1,2.3C9,2.8,9,2.8,9,2.9
		c0,1.4,0.7,2.5,1.2,3.8c0.5,1.4,1.1,2.8,1.7,4.2c0.3,0.8,0.8,1.6,1.2,2.3c0.1,0.1,0.2,0.2,0.3,0.4c0.4-0.7,0.6-1.4,0.9-2.1
		c0.5-1.4,1-2.8,1.5-4.2c0.3-0.7,0.7-1.4,1.1-2.1c0.2-0.3,0.3-0.6,0.5-0.9c0.3,0,0.5,0,0.4,0.5c0,0.1,0.1,0.3,0.1,0.5
		c0,0.2,0.1,0.3,0.1,0.5c-0.2,0-0.4,0-0.6,0c0,0.1-0.1,0.3-0.1,0.5c0.1,1.9-0.1,3.7-0.9,5.5c-0.2,0.4-0.4,0.7-0.6,1
		c-0.2,0.2-0.4,0.4-0.8,0.2c0.1-0.2,0.2-0.3,0.3-0.4c0.2-0.2,0.4-0.3,0.2-0.6c0-0.1,0.1-0.3,0.1-0.5c0.2-0.5,0.5-1.1,0.7-1.6
		c0,0-0.1,0-0.1-0.1c-0.3,0.4-0.5,0.8-0.8,1.2c-0.2,0.4-0.3,0.8-0.8,0.9c-0.1,0-0.2,0.3-0.2,0.4c-0.1,0.3-0.1,0.6-0.2,0.8
		c0.4,0.3,0.7,0.3,1.1,0.2c0.5-0.2,1-0.4,1.5-0.5c0.3-0.1,0.7-0.2,1.1-0.2c-1.2,0.6-2.4,1.1-3.7,1.4c0.1,0,0.3,0.1,0.4,0
		c0.9-0.2,1.8-0.4,2.7-0.6c0.6-0.7,1.5-0.5,2.2-0.8c0.9-0.4,1.8-0.7,2.7-1.1c0.4-0.2,0.8-0.5,1-0.8c0.3-0.3,0.5-0.4,0.9-0.3
		c0.4,0.1,0.4,0.4,0.4,0.8c-0.1,0-0.2,0-0.3,0.1c-0.1,0-0.1,0.1-0.1,0.1c0,0.1,0.1,0.2,0.1,0.2c0.2,0,0.4,0,0.7,0
		c0.2-0.1,0.4,0,0.5,0.2c-0.1,0.1-0.1,0.1-0.2,0.1c-0.7-0.1-1.2,0.3-1.8,0.5c-0.7,0.3-1.5,0.5-2.3,0.6c-2,0.2-3.8,0.9-5.7,1.5
		c-0.2,0-0.3,0.2-0.5,0.3c0.6,0.2,1,0.4,1.5,0.7c-0.1,0.2-0.2,0.3-0.3,0.5c0.6,0.2,1.2,0.5,1.8,0.8c0,0,0.1-0.1,0.1-0.1
		c-0.4-0.3-0.7-0.5-1.1-0.8c0.1-0.3,0.3-0.3,0.5-0.2c0.4,0.2,0.8,0.3,1.2,0.6c1.3,0.7,2.6,1.3,3.8,2c0.3,0.1,0.6,0.2,0.4,0.7
		c-0.5,0.1-0.7-0.4-1.2-0.5c-0.2,0.4-0.5,0.3-0.8,0.1c-0.8-0.4-1.7-0.8-2.5-1.1c-1-0.3-1.9-0.9-2.9-1.2c-0.2-0.1-0.5-0.1-0.8-0.2
		c0.5,1.7,1,3.3,1.5,4.8c0.5,1.6,1.2,3.1,1.8,4.9c-0.2-0.2-0.4-0.2-0.4-0.3c-0.3-0.6-0.6-1.2-0.9-1.8c-0.1-0.3-0.2-0.5-0.3-0.8
		c-0.6,0.4,0.1,0.8-0.2,1.3c-0.5-1.2-1.2-2.3-1.6-3.6c-0.4-1.2-0.8-2.5-1.2-3.8c-0.5,1-1.4,1.7-1.6,2.9c-0.2,0.8-0.5,1.6-0.7,2.4
		c0,0.1-0.1,0.1-0.3,0.3c0-0.5,0-0.9-0.1-1.4c-0.2,0.2-0.4,0.3-0.5,0.4c0.1-0.2,0.2-0.5,0.3-0.7c0.2-0.4,0.5-0.7,0.5-1.3
		c-0.7,0.7-0.9,1.6-1.4,2.3c0.3-0.2,0.4-0.3,0.6-0.4c-0.1,0.3-0.3,0.5-0.4,0.8c0.1,0.1,0.3,0.1,0.4,0.2c0.1,0.2,0.3,0.4,0.2,0.6
		c0,0.2-0.3,0.4-0.5,0.4c-0.5-0.2-0.7,0.2-1,0.4c-0.4-0.4-0.5-0.6-0.3-1.1c0.1-0.3,0.3-0.6,0.5-0.9c0.8-1.3,1.6-2.6,2.4-4
		c0.3-0.5,0.4-1,0.6-1.7c-0.3,0.1-0.5,0.2-0.7,0.2c-0.1,0-0.3,0.1-0.4,0.1c-0.8,0-0.8,0-1.4,0.3c0-0.1-0.1-0.2-0.1-0.3
		c0-0.1,0-0.2-0.1-0.3c-0.4,0.1-0.7,0.1-0.9,0.5c-0.1,0.2-0.2,0.4,0.2,0.5c-0.1,0.1-0.3,0.2-0.4,0.3c0.1,0.1,0.1,0.3,0.2,0.5
		c-0.3,0-0.6,0.1-0.8,0c-0.5-0.1-0.9,0-1.3,0.2c-0.5,0.2-1.1,0.4-1.7,0.6c-0.3,0.1-0.5,0-0.3-0.3c0.8-0.2,1.6-0.4,2.5-0.8
		C6.7,17.1,6.5,17,6.4,17c-0.7,0.2-1.5,0.4-2,1.1c-0.3,0-0.6,0-1-0.1c0.3-0.5,1.1-0.2,0.9-1c1-0.3,2-0.7,3-1
		c0.4-0.1,0.8-0.2,0.7-0.8c0.4,0.2,0.7,0.5,1,0.2c0.3-0.2,0.5-0.4,0.9-0.6c0.4,0.2,0.8,0,1.2-0.3c-0.9-0.7-5.4-2.5-6.7-2.7
		c-0.3-0.3-0.5-0.5-0.8-0.7c-1-0.6-2.1-1.2-3.2-1.8C0.3,9.2-0.2,9.1,0.1,8.7c0.2-0.4,0.5,0,0.8,0.1C0.9,8.9,1,8.9,1,8.9
		C1.1,9,1.1,9.1,1.2,9.2c0.9,0.4,1.7,1,2.8,0.7c0.1,0.1,0.2,0.4,0.3,0.4c0.8,0.3,1.5,0.8,2.2,1.3C7,12,7.6,12.2,8.3,12.5
		c0.1-0.2,0.2-0.3,0.3-0.5c0.2,0.2,0.3,0.3,0.4,0.4c0.2,0.2,0.3,0.4,0.5,0.5c0.4,0.3,0.8,0.5,1.2,0.7c0.2,0.1,0.4,0.2,0.6,0.3
		c0-0.5-0.2-0.7-0.6-0.9c-0.6-0.3-1.2-0.7-1.9-1c-0.7-0.3-1.3-0.7-2-1c-0.9-0.4-1.9-0.7-2.8-1.1C3.6,9.8,3.3,9.7,3,9.6
		C2.4,9.4,1.7,9.2,1,8.9z M13.5,15.6c-0.2-0.3-0.5-0.1-0.6,0c-0.3,0.6-0.7,1.1-0.5,2C12.9,16.9,13.4,16.3,13.5,15.6c0,0,0,0.1,0,0.1
		c0.5,0.9,1,1.9,1.5,2.8c0,0,0.1,0,0.2,0c-0.3-0.8-0.5-1.5-0.8-2.2C14.3,15.9,14,15.6,13.5,15.6z M15.2,10.5
		c1.2-1.1,1.9-3.2,1.6-4.4c-0.4,0.3-0.5,0.7-0.2,1.1c-0.2,0.2-0.4,0.3-0.5,0.5C15.8,8.6,15.5,9.5,15.2,10.5z M15.7,21.8
		c-0.2-1.3-0.7-2.5-1.3-3.7C14.8,19.4,15.1,20.7,15.7,21.8z M10.5,8.9c-0.3-1.2-0.7-2.3-1.3-3.4C9.6,6.7,9.8,7.9,10.5,8.9z M8,16.9
		c-0.1-0.2-0.1-0.3-0.2-0.5c-0.3,0.1-0.6,0.2-0.8,0.3C7.2,17.3,7.6,17.2,8,16.9z M12.3,15.1c-0.5-0.5-0.7-0.5-1.4,0.2
		C11.4,15.3,11.8,15.2,12.3,15.1z M14.3,14.2c0.3,0.4,0.4,0.4,1-0.2C14.9,14.1,14.7,14.2,14.3,14.2z M4.5,11.4
		c0.3,0.1,0.7,0.2,1,0.3c0,0,0-0.1,0-0.1C5.2,11.5,5,11,4.5,11.4z"/>
</g>
</svg>
