<?xml version="1.0" encoding="utf-8"?>
<!-- Generator: Adobe Illustrator 22.1.0, SVG Export Plug-In . SVG Version: 6.00 Build 0)  -->
<svg version="1.1" id="Artwork" xmlns="http://www.w3.org/2000/svg" xmlns:xlink="http://www.w3.org/1999/xlink" x="0px" y="0px"
	 viewBox="0 0 23.2 25.1" style="enable-background:new 0 0 23.2 25.1;" xml:space="preserve">
<style type="text/css">
	.st0{fill-rule:evenodd;clip-rule:evenodd;fill:#F37361;}
</style>
<g>
	<path class="st0" d="M11.6,13.6c-0.3,0.3-0.6,0.5-0.9,0.8c0.1,0.5,0.2,0.9,0.3,1.4c0.1,0.7-0.3,1.3-1,1.6c-0.1,0-0.2,0.1-0.3,0.2
		c-0.6,0.6-1.3,0.4-2.1-0.1c-0.3-0.2-0.5-0.4-0.8-0.6c-0.4-0.3-0.5-0.6-0.3-1.1c0.3-0.9,0.9-1.5,1.9-1.6c0.2,0,0.4,0,0.6,0
		c0.4,0,0.6-0.1,0.7-0.4c0.2-0.6,0.6-1,1.1-1.4c0.1-0.1,0.2-0.2,0.4-0.4c-0.1-0.1-0.2-0.1-0.2-0.1c-0.8,0.1-1.6,0-2.4,0.3
		c-0.6,0.2-1.2,0.2-1.8,0.3c-0.2,0-0.3,0.1-0.5,0.1c0,0.1-0.1,0.1-0.1,0.1c0.1,0.8-0.4,1.4-1.2,1.5c-0.2,0-0.4,0.1-0.6,0.1
		c-0.6,0.2-1.4-0.1-1.7-0.6c-0.1-0.2-0.2-0.3-0.2-0.5c-0.1-0.3-0.2-0.5-0.4-0.7c-0.3-0.4-0.3-0.7,0.1-1c0.6-0.4,1.2-0.7,1.9-0.9
		c0.5-0.1,0.8,0.1,1.1,0.4c0.1,0.1,0.1,0.2,0.2,0.3c0.3,0.5,0.4,0.5,1,0.4c0.6-0.2,1.3-0.3,1.9-0.3c0.5,0,1-0.1,1.5-0.1
		c0.1,0,0.2-0.1,0.3-0.1c-0.4-0.3-0.7-0.5-1-0.8c-0.1,0.1-0.1,0.1-0.1,0.2c-0.1,0.1-0.2,0.1-0.3,0.2c-0.1-0.1-0.2-0.2-0.1-0.3
		c0-0.4-0.2-0.6-0.6-0.8C7.5,9.4,6.9,9,6.2,8.5C5.7,8.3,5.2,8,4.7,7.7C4.5,7.5,4.3,7.4,4.1,7.2C3.9,7,3.7,6.8,3.5,6.6
		C3.2,6.3,2.9,6.1,2.4,6.3c-0.6,0.2-1.2,0-1.7-0.4C0.6,5.8,0.5,5.5,0.4,5.3C0.2,5.1,0.2,4.8,0.1,4.6C0,4.4-0.1,4.2,0.1,4
		c0.1-0.1,0.1-0.3,0.1-0.4c0.1-0.6,0.4-0.9,1-1c0.2,0,0.3-0.1,0.5-0.1C2.2,2.2,2.6,2.3,3,2.9c0.3,0.4,0.5,1,0.7,1.5
		c0.1,0.2-0.1,0.4-0.1,0.7c0.5,0.3,1.1,0.8,1.6,1.2C5.5,6.5,5.8,6.7,6,6.9c0.4,0.4,0.9,0.7,1.4,1c0.4,0.2,0.7,0.5,1.1,0.8
		c0.3,0.2,0.7,0.4,1,0.6c0.2,0.1,0.5,0.3,0.8,0.4c0.2,0.1,0.4,0.2,0.7,0.4c0-0.8-0.2-1.4-0.4-2C10.3,7.2,10,6.3,9.7,5.5
		c0-0.1-0.1-0.3-0.2-0.4C9.4,5,9.3,4.9,9.2,4.8c-0.9-1-0.9-1-1-2.3c0-0.2,0.1-0.4,0.1-0.6C8.6,2,8.7,2,8.9,2.1C9,2,9,2,9.1,1.9
		c0.2-0.2,0.3-0.5,0.5-0.7c0.2-0.3,0.4-0.3,0.7,0c0.4,0.3,0.7,0.6,1,1c0.1,0.1,0.1,0.2,0.1,0.3c-0.1,0.4,0.1,0.7,0.3,1
		c0.1,0.2,0.2,0.4,0,0.5c-0.1,0-0.1,0.2-0.1,0.3c0,0.3-0.1,0.5-0.4,0.7c-0.5,0.3-0.5,0.6-0.1,1c0,0,0,0.1,0.1,0.1
		c-0.1,0.6-0.1,0.6,0.5,0.9c-0.3,0.4-0.1,0.7,0,1.1c0.2,0.4,0.3,0.8,0.4,1.3c0.1,0.2,0.1,0.3,0.2,0.5c0,0.1,0.1,0.2,0.1,0.2
		c-0.1,0.5,0.2,0.9,0.4,1.4c0.2-0.2,0.3-0.3,0.5-0.4c-0.3-0.2-0.5-0.4-0.5-0.8c0.2-0.1,0.2-0.4,0.6-0.3C13.6,9.8,14,9.3,13.9,9
		c-0.2-0.8,0-1.5,0.7-2c0,0,0-0.1,0-0.1c0.1-0.2-0.3-0.4-0.1-0.7c0.1,0,0.2,0.1,0.4,0.1c0.3-0.5,0.6-1,0.9-1.6
		c0.3-0.5,0.5-1.1,0.7-1.7c-0.1-0.1-0.2-0.2-0.3-0.4c-0.1-0.2-0.2-0.4-0.1-0.5c0.2-0.7,0.4-1.3,1-1.8c0.5-0.5,1.1-0.6,1.7-0.2
		c0.6,0.4,1.2,1,1.2,1.8c0,0.7-0.2,1.1-0.8,1.4c-0.3,0.1-0.5,0.2-0.7,0.5c0,0.1-0.2,0.2-0.3,0.2c-0.2,0.1-0.4,0.3-0.4,0.6
		c0,0.1-0.1,0.2-0.1,0.3c-0.4,0.4-0.5,0.9-0.8,1.4c-0.2,0.5-0.6,0.9-0.9,1.3c-0.1,0.1-0.2,0.2-0.3,0.2c-0.3,0.1-0.4,0.2-0.4,0.5
		c0,0.5-0.1,0.8-0.6,0.9c-0.2,0.1-0.3,0.3-0.4,0.4c-0.1,0.2-0.1,0.4-0.2,0.6c0.1,0,0.2,0,0.3,0c1.2-0.4,2.4-0.7,3.7-0.7
		c0.1,0,0.2,0,0.3,0c0,0,0.1-0.1,0.1-0.1c0-0.7,0.6-1.1,1.3-1.2c0.4,0,0.8-0.1,1.2-0.3C21.1,8,21.3,8,21.4,8
		c0.8,0.2,1.4,0.8,1.6,1.6c0.1,0.5,0.1,1,0.2,1.5c0,0.3-0.3,0.6-0.6,0.5c-0.4-0.1-0.9,0-1.3,0.1c-1,0.1-1.8-0.3-2.4-1.1
		c-0.3,0-0.6,0.1-0.9,0.1c-0.7,0.1-1.5,0.2-2.2,0.3c-0.3,0.1-0.7,0.2-1,0.3c-0.5,0.2-0.9,0.3-1.4,0.2c0,0-0.1,0.1-0.2,0.1
		c1.1,0.8,2.3,1.5,3.5,2.1c0,0,0.1,0,0.1-0.1c0.4-0.6,0.9-0.6,1.5-0.5c0.1,0,0.3,0.1,0.4,0.2c0.2,0.3,0.6,0.5,0.7,0.8
		c0.1,0.5,0.3,1.1,0.1,1.7c-0.1,0.3-0.3,0.6-0.5,0.8c0,0.1-0.1,0.1-0.2,0.1c-0.7,0.3-1.4,0-2.1-0.3c-0.3-0.1-0.4-0.5-0.6-0.8
		c-0.1-0.1-0.1-0.3-0.1-0.4c-0.1-0.5-0.5-0.8-0.9-1c-0.9-0.6-1.8-1.2-2.8-1.8c0.1,0.2,0,0.4,0.1,0.5c0.2,0.2,0.2,0.5,0.3,0.8
		c0.1,0.5,0.3,0.9,0.5,1.4c0.5,1,0.7,2.1,0.6,3.2c0,0.7,0,1.4,0.2,2c0,0.1,0.1,0.2,0.1,0.2c0.4-0.4,0.5-0.4,0.9,0
		c0.4,0.3,0.7,0.7,1,1.1c0.1,0.1,0.1,0.2,0.2,0.4c0,0.5,0,1.1,0.1,1.6c0.1,0.4-0.1,0.7-0.4,0.9c-0.6,0.4-1.2,0.6-2,0.3
		c-0.5-0.2-0.7-0.7-0.9-1.1c-0.2-0.3-0.3-0.7-0.4-1c-0.1-0.2-0.1-0.4,0.1-0.5c0.5-0.4,0.5-1,0.4-1.5c-0.1-0.4-0.2-0.9-0.4-1.3
		c-0.2-0.5-0.2-0.9-0.2-1.4c0.1-0.5,0-1-0.2-1.5c-0.2-0.4-0.3-0.9-0.3-1.4C12.1,14.7,11.9,14.1,11.6,13.6z M14.1,13.2
		c0.1,0.3,0.4,0.4,0.7,0.6c0,0,0-0.1,0.1-0.1C14.6,13.5,14.3,13.3,14.1,13.2C14,13.1,14,13,13.9,12.9c-0.4-0.4-0.8-0.8-1.2-1.2
		c-0.1-0.1-0.1-0.1-0.2-0.1c-0.1,0.1-0.2,0.2-0.4,0.3c0.5,0.4,1,0.7,1.5,1C13.8,13,13.9,13.1,14.1,13.2z M8,14.6
		c-0.7,0.4-1,0.8-1.1,1.5C7,15.9,7,15.9,7.1,15.8c0.1-0.1,0.2-0.1,0.3-0.2C7.8,16,7.8,16,8.2,15.7c0,0.1,0,0.2,0,0.4
		c0.3,0,0.7,0,1,0c-0.1-0.1-0.1-0.2-0.1-0.2c-0.3-0.2-0.6-0.5-0.9-0.7C7.9,15,7.8,14.9,8,14.6c0.7,0.4,0.8,0.4,1.2,0
		C8.8,14.6,8.4,14.6,8,14.6z M13.3,22.8c0,0.1,0.1,0.2,0,0.3c-0.1,0.6,0.2,1,0.6,1.3c0.1,0.1,0.1,0.1,0.2,0.2
		c0.3,0.3,0.5,0.3,0.8-0.1c0.3-0.4,0.6-0.8,0.8-1.2c0.2-0.4,0.2-0.9-0.1-1.3c-0.3-0.4-0.7-0.8-1.1-1.2c-0.1,0.3-0.5,0.4-0.2,0.7
		c0,0-0.1,0.1-0.1,0.2c0,0.1,0,0.2-0.1,0.3c0.1-0.1,0.1-0.1,0.2-0.1c0.1-0.1,0.2-0.1,0.4-0.2c0,0.1,0.1,0.2,0.1,0.3
		c0.1,0.4,0.1,0.8,0.2,1.1c0,0.2,0,0.4-0.2,0.5c-0.2,0.1-0.5,0.2-0.6,0.5c-0.2-0.2-0.4-0.4-0.3-0.7c0-0.1-0.1-0.3-0.2-0.5
		c-0.2-0.3-0.3-0.5-0.5-0.7c-0.4,0.2-0.4,0.2-0.3,0.4C13.1,22.8,13.2,22.8,13.3,22.8z M11.9,13.1c0.1,0.2,0.1,0.4,0.1,0.6
		c0.1,0.4,0.2,0.8,0.2,1.2c0,0.6,0.1,1.1,0.3,1.7c0.2,0.5,0.3,1,0.2,1.5c-0.1,0.9,0.4,1.7,0.6,2.6c0.2-0.5,0.1-0.9,0-1.3
		c-0.1-0.6-0.3-1.1-0.3-1.7c0-0.2,0-0.4-0.1-0.6c-0.4-1-0.5-2-0.6-3C12.3,13.6,12.2,13.3,11.9,13.1z M17.8,3.5
		C17.8,3.5,17.8,3.5,17.8,3.5c-0.3-0.1-0.4-0.1-0.6-0.2c-0.5-0.1-0.6,0-0.6,0.5c0,0.4,0,0.8-0.1,1.1c-0.1,0.4-0.4,0.8-0.6,1.2
		c0,0,0,0-0.1,0c-0.1,0-0.2,0-0.3-0.1c-0.1,0.2-0.4,0.4-0.3,0.7c0.3-0.2,0.5-0.3,0.8-0.4c0.3-0.1,0.4-0.3,0.4-0.6
		c0-0.4,0.2-0.7,0.6-0.8c0.1-0.1,0.3-0.2,0.3-0.3C17.5,4.3,17.7,3.9,17.8,3.5z M22.3,11.3c0.1,0,0.3,0,0.4,0c0.1,0,0.1-0.3,0-0.4
		c0-0.2-0.1-0.5-0.1-0.7c0-0.8-0.4-1.3-1-1.7c-0.4-0.3-0.5-0.2-0.9,0.2c0.2,0.1,0.4,0.3,0.6,0.4c0.4,0.2,0.7,0.5,0.8,1
		C22.2,10.4,22.3,10.8,22.3,11.3z M5.3,11.8c-0.4-0.6-0.6-0.8-1.1-0.6c-0.5,0.1-0.9,0.3-1.4,0.5c-0.2,0.1-0.3,0.2-0.5,0.3
		c0.2,0.2,0.3,0.4,0.5,0.6c0.3-0.1,0.5-0.1,0.7-0.2c0-0.4,0.3-0.6,0.7-0.8C4.6,11.4,4.9,11.8,5.3,11.8z M10.8,2.8c0,0,0.1,0,0.1,0
		c0-0.1,0-0.3-0.1-0.4c-0.3-0.3-0.7-0.6-1-1C9.3,1.9,9.1,2.4,8.8,3C8.7,3.1,8.8,3.3,8.9,3.5c0.2-0.1,0.3-0.1,0.3-0.2
		c0.2-0.4,0.3-0.7,0.4-1c0.2-0.4,0.5-0.4,0.8,0C10.6,2.5,10.7,2.6,10.8,2.8z M0.5,3.5c0.5,0,0.9-0.2,1.4-0.3c0.2,0,0.4,0,0.6,0.1
		c0.1,0,0.2,0,0.4,0.1C2.5,2.7,2.2,2.6,1.6,2.8C1.4,2.9,1.2,2.9,1,2.9C0.7,3,0.6,3.1,0.5,3.5z M5.5,7.7C5.2,6.9,4.6,6.5,3.9,6.1
		C3.8,6,3.7,5.9,3.5,5.8c-0.1,0-0.2,0-0.2,0c0,0,0,0.1,0,0.1C4.1,6.5,4.5,7.4,5.5,7.7z M20.5,10.5c-0.3,0-0.7,0-1.2,0.1
		c0.3,0.6,1.4,1,1.8,0.8C21,11.1,20.8,10.8,20.5,10.5z M10.1,2.4C9.6,2.7,10,3,10,3.3c-0.1,0-0.2,0.1-0.4,0.1
		C9.7,3.6,9.9,3.7,10,3.8c0.2,0.1,0.4,0.2,0.5,0c0.2-0.1,0.2-0.3,0.1-0.5C10.5,3,10.4,2.7,10.1,2.4z M16.6,15.3
		c-0.1,0.3-0.1,0.3,0.1,0.4c0.2,0.2,0.5,0.4,0.8,0.6c0.3,0.2,0.5,0.2,0.8-0.1C17.8,15.8,17.2,15.5,16.6,15.3z M16.9,2.1
		c0.1-0.4,0.2-0.7,0.3-1.2c-0.7,0.7-0.9,1.3-0.5,1.7c0-0.1,0.1-0.2,0.1-0.4c0.3,0.1,0.3,0.6,0.7,0.6c-0.1-0.3-0.1-0.7-0.2-1
		C17.2,2,17.1,2,16.9,2.1z M19.3,2.8c0.2-0.4,0.3-0.8,0.2-1c-0.2-0.4-0.6-0.7-0.8-1.1c0,0.3,0.2,0.6,0.2,0.9
		C18.8,2.1,19.1,2.4,19.3,2.8z M6.1,12.1c0.1,0.3,0.2,0.2,0.4,0.2c0.7-0.1,1.4-0.2,2.1-0.4c0.1,0,0.2-0.1,0.4-0.2
		C8,11.7,7.4,11.8,6.1,12.1z M5.8,7.9c0.8,0.6,1.5,1.1,2.4,1.4C8.1,9.2,7.9,9,7.7,8.9c-0.4-0.3-0.9-0.7-1.3-1C6.2,7.7,6,7.6,5.8,7.9
		z M21.1,10.2c0.2-0.1,0.5-0.1,0.7-0.2c-0.2-0.7-0.9-0.7-1.3-1.1c0,0-0.1,0-0.1,0c0,0.1,0,0.3-0.1,0.4C20.8,9.4,20.9,9.8,21.1,10.2z
		 M5.1,13.1c-0.3,0.4-0.8,0.3-1.3,0.3c0.6,0.4,0.8,0.5,1.6,0.4C5.5,13.3,5.5,13.3,5.1,13.1z M20,8.8c-0.7-0.1-1.1,0.2-1.1,0.9
		c0.3-0.1,0.7-0.1,1-0.2C19.9,9.2,20,9,20,8.8z M11,3.9c-0.2,0.1-0.5,0.3-0.7,0.3c-0.2,0-0.5-0.1-0.7-0.2c0.2,0.8,0.3,0.9,0.6,1
		c0.1-0.2,0.1-0.4,0.2-0.5c0.2-0.3,0.3,0.2,0.5,0.1C11.1,4.3,11.1,4.3,11,3.9z M10,13.8c0.1,0.2,0.2,0.1,0.3,0
		c0.5-0.3,0.8-0.7,1-1.3C10.7,12.9,10.3,13.3,10,13.8z M11.3,9.2c0.1,0.6-0.1,1.3,0.8,1.3C12,10,11.8,9.5,11.3,9.2z M10.6,7.1
		c0.1-0.5,0.2-1.1-0.1-1.5c0-0.1-0.2-0.1-0.2-0.1c0,0.1-0.1,0.2-0.1,0.2C10.3,6.1,10.4,6.6,10.6,7.1z M16.7,10
		c-0.7,0.2-1.3,0.3-2,0.5c-0.1,0-0.1,0.1-0.2,0.2C15.3,10.7,16.2,10.5,16.7,10z M9.7,9.8c0.2,0.4,1,0.9,1.6,0.9
		C10.8,10.2,10.2,10,9.7,9.8z M9.9,14.9c0.2,0.4,0.4,0.7,0.7,1.2c0-0.6-0.1-1-0.3-1.4C10.2,14.8,10.1,14.8,9.9,14.9z M17,10.4
		c0.5,0.1,1.4-0.1,1.8-0.4c-0.3,0-0.5-0.1-0.6-0.1C17.8,10.1,17.4,10.3,17,10.4z M1.6,4.4c0.3,0.7,0.7,0.9,1.2,0.6
		C2.5,4.7,2.1,4.6,1.6,4.4z M17.7,14.8c0.1,0.2,0.3,0.4,0.3,0.5c0,0.3,0.2,0.4,0.4,0.5C18.5,15,18.4,14.9,17.7,14.8z M9.2,15.2
		c0.2,0.4,0.3,0.8,0.4,1.1c0.1-0.1,0.4-0.1,0.5-0.4c-0.2,0-0.3,0-0.5,0c0-0.3,0-0.5,0-0.7C9.5,15.2,9.4,15.2,9.2,15.2z M18.2,14.4
		c-0.2-0.2-0.2-0.3-0.4-0.5c-0.1-0.1-0.3-0.2-0.5-0.1c-0.2,0.1-0.2,0.3-0.1,0.5C17.5,14.3,17.8,14.4,18.2,14.4z M17.8,2.4
		c0,0.2,0.1,0.4,0.3,0.5c0.2,0,0.4,0,0.7,0c-0.1-0.2-0.2-0.3-0.2-0.4C18.3,2.4,18.1,2.4,17.8,2.4z M13.4,17.2
		c0.1-0.7-0.2-1.3-0.4-1.9c0,0-0.1,0-0.1,0C13,16,13.2,16.6,13.4,17.2z M18.1,13.7C18.1,13.7,18.1,13.7,18.1,13.7
		c0.2,0.5,0.5,0.8,0.8,1.3c0.1-0.6-0.4-0.8-0.5-1.1C18.4,13.7,18.2,13.7,18.1,13.7z M21.1,10.7c0.2,0.3,0.4,0.4,0.7,0.4
		c0-0.2,0-0.4,0-0.6C21.6,10.5,21.4,10.6,21.1,10.7z M4.2,12.7c0.1,0.1,0.3,0.2,0.4,0.3c0.4-0.3,0.5-0.4,0.2-0.8
		c0,0.4-0.3,0.4-0.5,0.3C4.2,12.5,4.2,12.6,4.2,12.7z M2.3,5.9c-0.2-0.3-0.5-0.6-1-0.4C1.6,5.8,2,5.9,2.3,5.9z M11.5,8.8
		C11.6,8.3,11,8,10.9,7.6C10.9,8.1,11.2,8.5,11.5,8.8z M8.5,17c-0.1,0.2-0.1,0.3-0.2,0.4c0.3,0.1,0.6,0.2,0.9-0.1
		C9.1,17.2,8.8,17.1,8.5,17z M16.2,4.6c-0.1,0.3-0.3,0.7-0.4,1C16.3,5.4,16.4,5.2,16.2,4.6z M19.1,10.1c0.3,0.2,0.6,0.1,0.9,0.1
		C19.8,9.8,19.7,9.8,19.1,10.1z M15.6,7c-0.3,0.2-0.5,0.4-0.6,0.7C15.6,7.6,15.7,7.5,15.6,7z M18.3,1.4c-0.1-0.6-0.3-0.7-0.6-0.5
		C17.9,1.1,18.1,1.2,18.3,1.4z M16.3,14.7c0.2,0.1,0.4,0.2,0.5,0.3c0.1-0.3,0.1-0.5-0.3-0.7C16.5,14.4,16.4,14.5,16.3,14.7z
		 M9.5,9.6C9.2,9.5,9,9.5,8.9,9.4c0,0,0,0-0.1,0.1C8.9,9.6,9,9.8,9.1,10C9.3,9.8,9.3,9.8,9.5,9.6z M2.8,4.6C2.4,4,2.3,3.9,2,4.1
		C2.2,4.3,2.5,4.4,2.8,4.6z M3.5,12.6c-0.1,0.1-0.3,0.2-0.4,0.2C3.2,13,3.3,13,3.4,13.1C3.6,12.9,3.6,12.9,3.5,12.6z M10.1,11.6
		c0.2,0.1,0.5,0.2,0.8,0C10.6,11.3,10.3,11.4,10.1,11.6z M2.2,3.6C1.8,3.5,1.6,3.4,1.4,3.8C1.7,3.9,1.9,3.8,2.2,3.6z M8.1,16.8
		c0,0,0.1-0.1,0.1-0.1c-0.1-0.2-0.3-0.4-0.6-0.3C7.8,16.5,7.9,16.6,8.1,16.8z M13,10.4c0.4,0.2,0.4,0.2,0.6-0.2
		C13.4,10.2,13.2,10.3,13,10.4z M11.8,11.8c-0.1-0.5-0.1-0.5-0.5-0.5C11.4,11.4,11.6,11.6,11.8,11.8z M17.8,1.6
		c0.1,0.5,0.2,0.5,0.5,0.3C18.1,1.8,18,1.7,17.8,1.6z M6,12.9c0,0-0.1,0-0.1,0c0,0.1-0.1,0.3,0.1,0.4C6,13.2,6,13.1,6,12.9z
		 M13.7,21.6C13.7,21.6,13.7,21.6,13.7,21.6c0,0.2,0,0.3,0,0.4c0,0,0.1,0,0.1,0C13.8,21.9,13.8,21.7,13.7,21.6z M9,16.6
		c0,0,0-0.1,0-0.1c-0.1,0-0.2,0-0.3,0c0,0,0,0.1,0,0.1C8.7,16.6,8.9,16.6,9,16.6z M7.5,8.3C7.5,8.3,7.5,8.3,7.5,8.3
		C7.5,8.3,7.5,8.4,7.5,8.3c0,0.1,0.1,0.2,0.2,0.3c0,0,0.1,0,0.1,0C7.7,8.4,7.6,8.4,7.5,8.3z M11.6,13.1c0,0-0.1-0.1-0.1-0.1
		c-0.1,0.1-0.2,0.3-0.2,0.4c0,0,0.1,0,0.1,0.1C11.4,13.4,11.5,13.3,11.6,13.1z M14.1,10.8C14.1,10.8,14.1,10.8,14.1,10.8
		c-0.1,0-0.2,0-0.3,0.1c0,0,0,0,0,0.1C13.9,10.9,14,10.9,14.1,10.8z"/>
</g>
</svg>
