<?xml version="1.0" encoding="utf-8"?>
<!-- Generator: Adobe Illustrator 22.1.0, SVG Export Plug-In . SVG Version: 6.00 Build 0)  -->
<svg version="1.1" id="Artwork" xmlns="http://www.w3.org/2000/svg" xmlns:xlink="http://www.w3.org/1999/xlink" x="0px" y="0px"
	 viewBox="0 0 23.9 23.5" style="enable-background:new 0 0 23.9 23.5;" xml:space="preserve">
<style type="text/css">
	.st0{fill-rule:evenodd;clip-rule:evenodd;fill:#F37361;}
</style>
<g>
	<path class="st0" d="M10.9,9.3c0-0.2,0-0.3-0.1-0.5c-0.3-1.5-0.7-3-1-4.5C9.8,4.1,9.7,4,9.4,4c-1-0.1-1.5-0.8-2-1.6
		c-0.1-0.1-0.1-0.3,0-0.5C7.6,1.6,7.8,1.3,8,1c0.1-0.1,0.2-0.4,0.4-0.2c0,0,0.1-0.1,0.1-0.1c0.5-0.7,1.3-0.8,2-0.2
		c0.8,0.7,1,1.9,0.7,2.8c-0.1,0.3-0.2,0.6-0.1,0.9c0.2,1.3,0.3,2.6,0.7,3.9C11.9,8.3,12,8.7,12.1,9c0.1,0.2,0.2,0.5,0.1,0.8
		c0,0.1,0.1,0.2,0.1,0.2c0.1,0,0.1-0.1,0.2-0.1C12.7,9.4,13,9,13.2,8.5c0.3-0.8,0.7-1.5,1.1-2.3c0.4-0.7,0.7-1.4,1.1-2.1
		c0.1-0.3,0-0.5-0.3-0.6c-0.2,0-0.2-0.1-0.2-0.3c-0.1-0.6,0.1-1.2,0.5-1.7c0.2-0.2,0.4-0.4,0.7-0.6c1.1-0.7,1.3-0.6,2.2,0.1
		C18.8,1.4,19.2,2,19,2.7c-0.1,0.2,0,0.4,0,0.6c0,0.3,0,0.5-0.3,0.7c-0.2,0.1-0.3,0.3-0.5,0.5c-0.2,0.3-0.4,0.4-0.7,0.4
		c-0.3,0-0.4,0.1-0.6,0.3c-0.1,0.2-0.4,0.3-0.6,0.4c-0.3,0.3-0.6,0.7-0.9,1.1c-0.5,0.9-1,1.8-1.5,2.8c-0.1,0.2-0.3,0.4-0.4,0.6
		c0,0.1,0,0.2,0,0.3c0.1,0,0.2,0,0.3,0c0.4-0.2,0.8-0.3,1.2-0.5c0.8-0.3,1.7-0.6,2.6-0.7c0.5-0.1,0.9-0.1,1.3-0.3
		c0.4-0.2,0.8-0.5,1-0.9c0.3-0.7,0.9-1.1,1.6-1.4c0.4-0.1,0.8-0.1,1.1,0.2c0.7,0.5,1.3,1,1.3,1.9c0,0.1,0,0.2,0,0.3
		c-0.1,0.9-1.1,1.7-2,1.7c-0.4,0-0.8-0.2-1.2-0.5c-0.4-0.3-0.6-0.4-1,0c-0.2,0.2-0.5,0.3-0.8,0.3c-1.3,0.2-2.5,0.7-3.8,1.1
		c-0.2,0-0.2,0,0,0.2c0.2,0.1,0.2,0.3-0.1,0.4c-0.1,0-0.2,0.1-0.3,0.1c-0.1,0-0.2,0.1-0.3,0.1c0.1,0.1,0.2,0.1,0.3,0.2
		c0.7,0.4,1.3,0.8,2,1.2c0.2,0.1,0.4,0.2,0.3,0.5c0,0.1,0.1,0.2,0.2,0.3c0.4,0.3,0.7,0.5,1.1,0.7c0.1,0.1,0.2,0.1,0.3,0.1
		c0.3,0,0.7-0.1,1-0.2c0.7-0.2,1.3,0.1,1.8,0.4c0.3,0.2,0.4,0.4,0.5,0.7c0.3,0.6,0.3,1.1-0.1,1.6c-0.2,1.1-1.8,1.7-2.8,1.2
		c-0.9-0.4-1.3-1-1.4-1.9c0-0.3,0-0.5-0.1-0.8c0-0.1-0.1-0.1-0.2-0.2c-0.3-0.1-0.6-0.1-0.9-0.3c-0.6-0.3-1.1-0.7-1.6-1.1
		c-0.2-0.1-0.4-0.2-0.6-0.3c0,0-0.1,0-0.1-0.1c-0.1-0.6-0.7-0.5-1.1-0.8c0,0.3,0.1,0.7,0.1,1c0.1,0.7,0.1,1.5,0.2,2.2
		c0.1,0.5,0.2,1,0.3,1.6c0.1,0.3,0.2,0.4,0.5,0.5c0.7,0.2,1.2,0.7,1.4,1.5c0.1,0.3,0.2,0.5,0.3,0.8c0,0.2,0,0.4,0,0.6
		c-0.1,0.3-0.2,0.5-0.3,0.8c-0.1,0.3-0.3,0.5-0.6,0.6c-0.7,0.3-1.5,0.5-2.2,0c-0.3-0.2-0.5-0.4-0.7-0.7c-0.2-0.3-0.4-0.7-0.6-1
		c-0.2-0.3-0.2-0.4,0-0.7c0.3-0.4,0.6-0.7,1-1.1c0.1-0.1,0.2-0.2,0-0.4c-0.1-0.1-0.2-0.3-0.3-0.5c-0.3-1.2-0.5-2.4-0.6-3.6
		c0-0.6-0.1-1.1-0.1-1.6c0-0.1-0.1-0.1-0.1-0.2c-0.1,0.1-0.1,0.1-0.2,0.2c-0.6,1-1.3,2.1-1.9,3.1c-0.3,0.5-0.6,1-0.9,1.6
		c0,0.1,0,0.2,0,0.3c0.1,0.2,0.1,0.4,0.2,0.6c0,0.1,0,0.3,0.1,0.4c0.3,1-0.2,1.7-0.6,2.5c-0.1,0.2-0.5,0.4-0.7,0.4
		c-0.5,0.1-1.1,0-1.6,0c-0.2,0-0.3-0.1-0.5-0.2c-0.2-0.2-0.4-0.4-0.6-0.6c-0.1-0.1-0.2-0.3,0-0.5c0.1-0.1,0.1-0.2,0-0.3
		c-0.3-0.3-0.3-0.7-0.1-1.1c0.3-0.8,0.6-1.5,1.2-2.1c0.3-0.3,0.7-0.6,1.2-0.4c0.2,0.1,0.3,0,0.4-0.2c0.6-1,1.2-2.1,1.8-3.1
		c0.1-0.2,0.2-0.3,0.3-0.5c0,0,0-0.1,0-0.2c-0.1,0-0.2,0-0.2,0.1c0,0.5-0.4,0.4-0.7,0.5c-0.7,0.2-1.3,0.3-2,0.5
		c-0.5,0.1-1.1,0.1-1.6,0.2c-0.3,0-0.3,0.1-0.4,0.4c-0.1,0.7-0.5,1.2-1.2,1.4c-0.4,0.1-0.9,0.2-1.3,0.2c-0.8,0.1-1.6-0.5-1.8-1.3
		c0-0.1,0-0.2-0.1-0.3c-0.1-0.3-0.3-0.6-0.1-1c0.3-0.5,0.5-1,1.1-1.2c0.4-0.1,0.7-0.3,1.1-0.4c0.6-0.1,1.1,0.1,1.6,0.5
		c0.2,0.2,0.5,0.3,0.7,0.2c1.5-0.4,3-0.9,4.5-1.3c0.4-0.1,0.7-0.3,1.1,0c0,0,0.1,0,0.1,0c0.2,0,0.3-0.1,0.5-0.1
		c-0.1-0.2-0.2-0.2-0.4-0.2c-0.2,0-0.3,0-0.3-0.3c0-0.1-0.1-0.2-0.2-0.3c-1-0.6-2.1-1.1-3.1-1.6C6.1,9,5.5,8.6,4.9,8.2
		C4.6,8,4.4,8,4.1,8.2C3.7,8.5,3.2,8.5,2.7,8.3C2.3,8,1.8,7.8,1.4,7.4C0.9,7.1,0.9,6.5,0.9,5.9c0-0.6,0.2-0.9,0.8-1
		c0.2,0,0.4-0.3,0.5-0.4c0.3-0.3,0.5-0.3,0.7,0c0.2,0.3,0.4,0.4,0.8,0.3c0.2-0.1,0.4-0.1,0.6,0c0.7,0.1,1,0.6,1,1.3
		c0,0.2-0.1,0.4-0.1,0.6C5.1,6.9,5.2,7,5.4,7.2c0.7,0.4,1.4,0.7,2.1,1.1c0.6,0.3,1.2,0.6,1.8,1C9.6,9.5,9.8,9.7,10,10
		c0,0.1,0.1,0.1,0.1,0.2c0.2,0.1,0.4,0.2,0.6,0.3c0-0.2-0.1-0.4-0.1-0.6c0-0.1-0.2-0.2-0.2-0.4c0-0.1,0-0.4,0-0.4
		c0.2-0.2,0.3,0,0.4,0.2C10.8,9.2,10.9,9.3,10.9,9.3c0,0,0,0.1,0,0.1c0,0,0,0,0,0C11,9.4,10.9,9.4,10.9,9.3z M11,13.3
		c0,0-0.1,0.1-0.1,0.1c-0.2,0.1-0.5,0.3-0.5,0.6c0,0,0,0,0,0c0.3-0.1,0.4-0.3,0.5-0.6C10.9,13.4,11,13.4,11,13.3L11,13.3z M8.1,16.6
		L8.1,16.6c0,0,0.1-0.1,0.1-0.1c0-0.1,0.1-0.2,0.1-0.2c0.2-0.2,0.4-0.4,0.4-0.7c-0.1,0.2-0.2,0.5-0.4,0.7c0,0.1-0.1,0.2-0.1,0.2
		C8.2,16.6,8.2,16.6,8.1,16.6z M6.4,8.3L6.4,8.3L6.4,8.3c-0.1,0-0.2-0.1-0.2-0.1C5.8,8,5.5,7.8,5.2,7.6c-0.1,0-0.2-0.1-0.3,0
		C4.8,7.7,5,7.8,5.1,7.8C5.4,8,5.8,8.1,6.1,8.2C6.2,8.3,6.3,8.3,6.4,8.3z M22.8,9.4C22.8,9.5,22.7,9.5,22.8,9.4
		C22.7,9.5,22.7,9.5,22.8,9.4C22.8,9.4,22.8,9.4,22.8,9.4C22.8,9.4,22.8,9.4,22.8,9.4z M7.3,12.7C7.3,12.7,7.3,12.7,7.3,12.7
		C7.3,12.7,7.3,12.7,7.3,12.7z M9,0.9C9,1,9,1,9,1.1c0,0,0.1,0.1,0.1,0.1c0,0.5,0,0.9,0.4,1.2C9.7,2.5,9.9,2.5,10,2.5
		C10,2.4,9.9,2.3,9.8,2.2c-0.2-0.3-0.4-0.7-0.7-1c0,0-0.1-0.1-0.1-0.1C9,1.1,9,1,9,0.9L9,0.9L9,0.9z M9.5,14.3
		C9.5,14.3,9.5,14.4,9.5,14.3C9.4,14.4,9.5,14.3,9.5,14.3c0-0.1,0.1-0.2,0.1-0.3c0.2-0.2,0.4-0.4,0.7-0.6c0,0,0-0.1,0.1-0.2
		c-0.1,0-0.2,0-0.2,0c-0.2,0.3-0.3,0.5-0.5,0.8C9.5,14.2,9.5,14.2,9.5,14.3z M1.4,15.7L1.4,15.7L1.4,15.7
		C1.4,15.7,1.3,15.7,1.4,15.7C1.3,15.7,1.4,15.7,1.4,15.7z M18.6,16.7c0,0,0.1,0.1,0.1,0.1c0,0,0.1,0.1,0.1,0.1
		c0.1,0.1,0.2,0.1,0.3,0.1c0-0.1,0.1-0.2,0.1-0.3c-0.1,0-0.2,0.1-0.3,0.1c-0.1,0-0.1,0-0.2,0C18.6,16.8,18.6,16.8,18.6,16.7
		c0,0-0.1-0.1-0.1-0.1c0,0,0,0,0,0.1C18.5,16.7,18.5,16.7,18.6,16.7z M21.1,7.3C21,7.4,21,7.5,20.9,7.6c0,0-0.1,0.1-0.1,0.1
		c0,0-0.1,0-0.1,0.1c0,0,0.1-0.1,0.1-0.1c0,0,0.1-0.1,0.1-0.1C21,7.5,21,7.4,21.1,7.3C21.1,7.3,21.1,7.3,21.1,7.3
		C21.1,7.3,21.1,7.3,21.1,7.3z M11.1,10.1c0,0,0-0.1-0.1-0.1C11.1,10,11.1,10.1,11.1,10.1c0,0.1,0.1,0.2,0.1,0.3l0,0h0
		C11.2,10.3,11.2,10.2,11.1,10.1z M16,14.2c-0.1,0-0.2-0.1-0.2-0.1c-0.1-0.1-0.2-0.2-0.3-0.3c0,0,0,0.1-0.1,0.1
		c0.1,0.1,0.3,0.1,0.4,0.2C15.9,14.1,15.9,14.2,16,14.2c0,0,0.1,0.1,0.1,0.1c0,0,0,0,0,0C16.1,14.3,16.1,14.2,16,14.2z M18.3,10
		c0.1,0,0.1,0,0.2-0.1c0,0,0.1-0.1,0.1-0.1c0,0-0.1,0-0.1,0C18.4,9.9,18.4,9.9,18.3,10C18.3,10,18.3,10,18.3,10
		C18.3,10,18.3,10,18.3,10z M17.8,4.1c-0.1,0-0.2,0-0.2,0c0,0,0,0.1-0.1,0.2c0,0,0.1,0,0.1,0C17.7,4.3,17.8,4.2,17.8,4.1
		C17.8,4.1,17.8,4.1,17.8,4.1C17.8,4.1,17.8,4.1,17.8,4.1z M3.2,6.7C3.1,6.6,3.1,6.6,3.2,6.7C3.1,6.6,3.1,6.6,3,6.5
		C3,6.6,3.1,6.6,3.2,6.7C3.1,6.6,3.1,6.7,3.2,6.7C3.2,6.8,3.3,7,3.3,7.1c0,0,0.1,0,0.2,0c0-0.1,0-0.2,0-0.2C3.4,6.8,3.3,6.7,3.2,6.7
		z M9.3,15.9c-0.4,0.3-0.5,0.7-0.7,1.1c-0.2,0.3-0.4,0.6-0.6,0.8c0,0,0,0.1,0,0.1c0,0,0.1,0,0.1,0c0.2-0.3,0.5-0.5,0.5-1
		C9,16.7,9.1,16.3,9.3,15.9C9.3,15.9,9.3,15.9,9.3,15.9C9.3,15.9,9.3,15.9,9.3,15.9z M10.7,2.9C10.5,3,10.3,3,10.1,3.1
		c0,0,0,0.2,0,0.2c0.1,0,0.2,0,0.2,0C10.5,3.2,10.6,3,10.7,2.9L10.7,2.9L10.7,2.9z M13.6,13.1c-0.2-0.1-0.4-0.3-0.6-0.4
		c0,0-0.1,0-0.1,0c0,0,0,0.1,0,0.1c0.2,0.1,0.4,0.3,0.6,0.4c0,0,0.1,0,0.2,0C13.6,13.2,13.6,13.1,13.6,13.1c0.2,0.1,0.5,0.1,0.7,0.2
		c-0.1-0.2-0.2-0.3-0.4-0.4C13.8,12.8,13.6,12.9,13.6,13.1z M21,18.4c0.6-0.2,0.6-0.8,0.8-1.3c0,0-0.1-0.1-0.1-0.2
		c-0.1,0-0.1,0.1-0.2,0.1c0,0.1,0,0.2-0.1,0.4c0,0.1-0.1,0.3-0.2,0.4C21,17.9,21,18.2,21,18.4c-0.1,0.1-0.3,0.1-0.4,0.2
		c0,0,0,0.1,0.1,0.1C20.8,18.6,20.9,18.5,21,18.4z M2.2,15.4c0.2,0,0.3,0,0.4,0c0.5-0.1,0.9-0.4,1-0.8c0-0.1,0-0.2,0-0.2
		c0,0-0.1,0.1-0.1,0.1c-0.2,0.5-0.6,0.6-1.1,0.6c-0.5,0-0.9-0.1-1.3-0.4c-0.1,0-0.1-0.1-0.2-0.1c0,0.1,0,0.2,0.1,0.2
		C1.3,15.3,1.8,15.4,2.2,15.4z M12.7,21.9C12.8,21.9,12.8,21.9,12.7,21.9c0-0.2,0-0.4,0-0.6c0-0.1,0.1-0.1,0.1-0.2
		c0,0,0.1,0.1,0.1,0.1c0,0.4,0.4,0.6,0.6,0.9c0,0,0.1,0,0.1,0.1c0,0,0-0.1,0-0.1c-0.1-0.3,0-0.7-0.3-1c-0.1-0.2-0.3-0.3-0.5-0.2
		c-0.2,0.1-0.4,0.3-0.3,0.5C12.6,21.6,12.7,21.7,12.7,21.9z M7,19.7c-0.3,0.1-0.6,0.2-0.9,0.3c0,0-0.1,0.1-0.1,0.2c0,0,0.1,0,0.1,0
		c0.4,0,0.8,0,1.2,0c0.1,0,0.3,0,0.4-0.1c0.1,0,0.1-0.1,0.1-0.2c0-0.1-0.1-0.1-0.1-0.1C7.6,19.8,7.3,19.8,7,19.7z M16,10.5
		C16,10.5,16,10.5,16,10.5c-0.1-0.1-0.2-0.1-0.2-0.1c-0.6,0.1-1.1,0.2-1.7,0.3c-0.4,0.1-0.8,0.2-1.2,0.3c0,0-0.1,0.1-0.1,0.2
		c0.1,0,0.1,0,0.2,0c0.7-0.2,1.4-0.3,2.1-0.5C15.4,10.7,15.7,10.6,16,10.5z M14.9,21.4c-0.1,0.2-0.3,0.4,0,0.4
		c0.2,0,0.2-0.2,0.2-0.4c0-0.1-0.1-0.2-0.1-0.4c-0.1-0.1-0.1-0.3-0.3-0.4c-0.1-0.1-0.3-0.2-0.4-0.3c0.1,0.2,0.1,0.3,0.2,0.5
		C14.6,21,14.8,21.2,14.9,21.4z M8.9,2.6C8.7,2.2,8.6,1.8,8.4,1.5c0,0-0.2,0-0.2,0c0,0.1-0.1,0.2-0.1,0.3C8.2,2.2,8.5,2.4,8.9,2.6z
		 M12.5,20.6c0.2,0,0.3-0.1,0.4-0.1c0.4-0.1,0.5-0.2,0.4-0.6c0,0,0-0.1-0.1-0.1c0,0-0.1,0-0.1,0.1C12.9,20.1,12.7,20.3,12.5,20.6z
		 M2.8,7.7c0,0,0.1,0,0.2-0.1C3,7.5,2.9,7.5,2.9,7.4C2.6,7.2,2.4,7,2.1,6.9c0,0-0.1,0-0.1,0c0,0.1,0,0.1,0,0.2
		C2,7.3,2.5,7.7,2.8,7.7z M12.8,15c0,0,0.1,0,0.1,0c-0.1-0.6-0.3-1.2-0.4-1.9c0-0.1-0.1-0.1-0.1-0.2c0,0.1-0.1,0.1-0.1,0.2
		C12.5,13.8,12.7,14.4,12.8,15z M7,13.8C7,13.9,7,14,7,14c0.3-0.1,0.7-0.2,1-0.3c0,0,0.1-0.1,0.1-0.1c0,0-0.1-0.1-0.1-0.1
		C7.6,13.6,7.3,13.7,7,13.8z M20.5,16.6c-0.2-0.2-0.3-0.3-0.4-0.5c0,0-0.2,0-0.2,0.1c0,0.1-0.1,0.3,0,0.4c0.1,0.1,0.3,0.1,0.4,0.1
		C20.3,16.7,20.4,16.7,20.5,16.6z M4.7,6.3c0-0.2,0.1-0.3,0.1-0.4C4.7,5.6,4.5,5.5,4.4,5.3c0,0-0.1,0-0.1,0c0,0.2,0.1,0.3,0.1,0.5
		c0,0.1,0.1,0.2,0.1,0.3C4.6,6.2,4.6,6.2,4.7,6.3z M6.1,13.8C6.1,13.7,6.1,13.7,6.1,13.8c-0.5,0-0.9,0-1.4,0.1
		c-0.1,0-0.1,0.1-0.2,0.1c0.1,0,0.1,0.1,0.2,0.1C5.2,14,5.6,13.9,6.1,13.8z M20.1,17.6c-0.2-0.2-0.3-0.3-0.4-0.4c0,0-0.1,0-0.1,0.1
		c0,0.1-0.1,0.3,0,0.4c0.1,0.1,0.2,0.1,0.4,0.1C20,17.7,20.1,17.6,20.1,17.6z M16.6,1.5L16.6,1.5c0.1,0,0.1,0,0.2,0
		c0.1-0.1,0.2-0.1,0.3-0.2c0,0,0-0.1,0-0.1c-0.1,0-0.2,0-0.3,0c-0.1,0-0.2,0.1-0.2,0.1c-0.1,0-0.1,0.1-0.1,0.2c0,0,0.1,0,0.1,0
		C16.5,1.5,16.5,1.5,16.6,1.5z M16.3,3.8c0,0-0.1,0.1-0.1,0.1c0.2,0.1,0.4,0.2,0.6,0.4c0,0,0.1-0.1,0.1-0.1
		C16.9,4,16.5,3.8,16.3,3.8z M8.8,3.2C9,3.5,9.3,3.4,9.6,3.5c0,0,0.1-0.1,0.2-0.1C9.7,3.3,9.6,3.2,9.6,3.2C9.3,3.2,9.1,3.2,8.8,3.2z
		 M15.7,5.1c0.2-0.3,0.3-0.5,0.4-0.6c0,0-0.1-0.1-0.2-0.1c0,0-0.1,0-0.1,0.1c-0.1,0.2-0.1,0.3-0.2,0.5C15.6,4.9,15.6,5,15.7,5.1z
		 M11.4,9.8c0,0,0.1,0,0.1,0c-0.1-0.4-0.2-0.9-0.4-1.3c0,0-0.1,0-0.1,0C11.2,8.9,11.3,9.4,11.4,9.8z M2.3,13.9
		C2.4,14,2.5,14,2.5,13.8c0-0.1-0.1-0.2-0.2-0.2c-0.2,0-0.4,0.1-0.4,0.2C2,14.1,2.2,13.8,2.3,13.9z M2.3,5.3C2,5.5,1.9,5.6,1.7,5.7
		c0,0,0,0.1-0.1,0.1c0,0,0.1,0,0.1,0c0.2,0,0.3-0.1,0.5-0.2c0.1,0,0.1-0.1,0.2-0.1C2.4,5.5,2.4,5.4,2.3,5.3z M1.1,13.4
		c0,0-0.1,0-0.1,0c-0.1,0.2-0.2,0.3-0.3,0.5c0,0,0,0.1,0.1,0.1C1,13.9,1,13.7,1,13.6C1.1,13.5,1.1,13.5,1.1,13.4z M10.6,5.6
		c0,0-0.1,0-0.1,0c0.1,0.3,0.1,0.6,0.2,0.9c0,0,0.1,0,0.1,0C10.7,6.2,10.7,5.9,10.6,5.6z M15.1,22.3c0,0,0-0.1-0.1-0.1
		c0,0-0.1,0-0.2,0c-0.1,0.1-0.1,0.3-0.1,0.5c0,0,0.1,0.1,0.1,0C14.9,22.6,15,22.5,15.1,22.3C15.1,22.4,15.1,22.4,15.1,22.3z
		 M20.9,15.8C20.9,15.9,20.9,15.9,20.9,15.8c0.1,0.2,0.3,0.4,0.5,0.5c0,0,0,0,0.1-0.1C21.3,16.1,21.1,16,20.9,15.8z M13.1,17.3
		C13.2,17.3,13.2,17.2,13.1,17.3c0.1-0.2,0-0.4,0-0.6c0,0-0.1-0.1-0.1-0.1c0,0-0.1,0.1-0.1,0.1C13,16.9,13.1,17.1,13.1,17.3z
		 M14.2,22C14.2,22.1,14.2,22.1,14.2,22c-0.1,0.2,0,0.3,0,0.5c0,0,0.1,0.1,0.1,0.1c0,0,0.1,0,0.1-0.1C14.4,22.4,14.3,22.2,14.2,22
		C14.3,22.1,14.2,22,14.2,22z M15.3,2.4c0,0,0.1,0.1,0.1,0.1c0.1-0.2,0.3-0.3,0.4-0.5c0,0,0-0.1,0-0.1c0,0-0.1,0-0.1,0
		C15.5,2.1,15.4,2.2,15.3,2.4z M7.2,18.4c0,0-0.1,0.1-0.2,0.1c0.1,0,0.1,0.1,0.2,0.1c0.1,0,0.2,0,0.3,0c0-0.1,0-0.1-0.1-0.2
		C7.5,18.4,7.4,18.4,7.2,18.4z M1.6,14.6c0-0.1,0-0.1-0.1-0.2c-0.1-0.1-0.2-0.2-0.3-0.3c0,0-0.1,0.1,0,0.1c0.1,0.1,0.2,0.2,0.2,0.3
		C1.4,14.6,1.5,14.6,1.6,14.6z M3.4,6.3C3.4,6.2,3.4,6.2,3.4,6.3C3.3,6.1,3.3,6,3.2,5.9c0,0-0.1,0.1-0.1,0.1
		c0.1,0.1,0.1,0.2,0.2,0.4C3.3,6.3,3.4,6.3,3.4,6.3z M14.2,19.4c-0.1,0.1-0.1,0.1-0.2,0.2c0.1,0.1,0.2,0.1,0.3,0.2
		c0,0,0.1,0,0.1-0.1C14.4,19.6,14.3,19.5,14.2,19.4z M17.3,2.2C17.2,2.1,17.1,2,17,2c0,0-0.1,0.1-0.1,0.1c0.1,0.1,0.2,0.2,0.3,0.2
		C17.1,2.3,17.2,2.2,17.3,2.2z M12.1,13.3c0-0.1,0-0.1-0.1-0.2c0,0-0.1-0.1-0.1-0.1c0,0.1,0,0.1,0,0.2c0,0.1,0,0.1,0,0.2
		c0,0,0.1,0.1,0.1,0.1C12.1,13.4,12.1,13.4,12.1,13.3z M21.2,9.2C21.1,9.1,21,9,20.9,9c0,0-0.1,0.1-0.1,0.1c0.1,0.1,0.2,0.2,0.3,0.3
		C21.1,9.3,21.2,9.3,21.2,9.2z M14,12c0.1,0,0.2-0.1,0.3-0.1c0.1,0,0.1-0.1,0.2-0.1c-0.1,0-0.1,0-0.2,0c-0.1,0-0.2,0.1-0.3,0.1
		C14,11.8,13.9,11.9,14,12C14,11.9,14,11.9,14,12z M1.6,6.7C1.5,6.6,1.4,6.5,1.4,6.4c0,0-0.1,0.1-0.1,0.1c0,0.1,0.1,0.2,0.2,0.3
		C1.5,6.8,1.5,6.7,1.6,6.7z M19.9,9.5c0.1-0.1,0.1-0.2,0.1-0.2c0-0.1-0.1-0.1-0.1-0.2c0,0.1-0.1,0.1-0.1,0.2
		C19.8,9.3,19.9,9.4,19.9,9.5z M2.6,14.8c0.1-0.1,0.1-0.1,0.2-0.1c-0.1,0-0.1,0-0.2,0c0,0-0.1,0-0.1,0.1C2.4,14.8,2.5,14.8,2.6,14.8
		z M18.1,2.4c0.1,0.1,0.1,0.1,0.2,0.2c0,0,0.1-0.1,0.1-0.1c0,0-0.1-0.1-0.1-0.1C18.3,2.3,18.2,2.4,18.1,2.4z M18,1.5
		c-0.1-0.1-0.2-0.1-0.3-0.2c0,0-0.1,0-0.1,0c0.1,0.1,0.1,0.1,0.2,0.2C17.8,1.6,17.9,1.5,18,1.5z M6.4,21.7c-0.1-0.1-0.1-0.2-0.2-0.2
		c-0.1,0-0.1,0-0.2,0c0,0,0,0.1,0.1,0.1C6.2,21.7,6.3,21.7,6.4,21.7z M7.9,21.2c-0.1,0.1-0.1,0.1-0.2,0.2c0,0,0.1,0.1,0.1,0
		c0.1-0.1,0.1-0.1,0.2-0.2C8,21.3,7.9,21.3,7.9,21.2z M23.3,8.5c-0.1,0.1-0.1,0.1-0.1,0.2c0,0.1,0,0.2,0,0.3c0,0,0.1-0.1,0.1-0.1
		C23.4,8.8,23.3,8.7,23.3,8.5z M21.3,8.7c0,0.1-0.1,0.1-0.1,0.2c0,0.1,0.1,0.1,0.2,0.2c0,0,0.1,0,0.1-0.1
		C21.4,8.9,21.4,8.8,21.3,8.7z M3.6,5.5c0.1,0.1,0.1,0.1,0.2,0.2c0,0,0-0.1,0-0.1C3.8,5.5,3.8,5.5,3.6,5.5C3.7,5.4,3.7,5.5,3.6,5.5z
		 M18.6,15.9c-0.1,0.1-0.1,0.1-0.1,0.1c0,0.1,0.1,0.1,0.1,0.1c0,0,0.1-0.1,0.1-0.1C18.6,16,18.6,16,18.6,15.9z M5.6,18.9
		c0.1-0.1,0.1-0.2,0.1-0.2c0,0,0-0.1,0-0.1c-0.1,0.1-0.1,0.1-0.2,0.2C5.6,18.7,5.6,18.8,5.6,18.9z M10.6,12.7c-0.1,0-0.1,0-0.2,0
		c0,0-0.1,0.1-0.1,0.1c0.1,0,0.1,0,0.2,0C10.5,12.8,10.6,12.8,10.6,12.7z M22.2,9.4C22.2,9.4,22.2,9.4,22.2,9.4
		c-0.1-0.1-0.1,0-0.1,0C22.1,9.5,22.1,9.5,22.2,9.4C22.2,9.5,22.2,9.5,22.2,9.4z M4.1,7.1C4,7,4,7,3.9,7c0,0-0.1,0-0.1,0.1
		c0,0,0,0.1,0.1,0.1C4,7.2,4,7.1,4.1,7.1z M6.8,17.9C6.7,17.9,6.7,17.9,6.8,17.9c-0.1,0.1-0.1,0.1,0,0.2c0,0,0.1,0,0.1-0.1
		C6.8,18,6.8,17.9,6.8,17.9z M16.3,2.6c0,0,0-0.1-0.1-0.1c0,0-0.1,0-0.1,0C16.2,2.5,16.2,2.6,16.3,2.6C16.3,2.7,16.3,2.6,16.3,2.6z
		 M16.3,3.3c0.1,0,0.1,0,0.1-0.1c0,0-0.1-0.1-0.1-0.1c0,0-0.1,0-0.1,0.1C16.3,3.2,16.3,3.3,16.3,3.3z M12.5,15.8
		C12.5,15.8,12.5,15.9,12.5,15.8C12.5,15.9,12.5,15.9,12.5,15.8C12.5,15.8,12.5,15.8,12.5,15.8z M20.4,17.9
		C20.4,17.9,20.4,18,20.4,17.9c0,0.1,0,0.1,0,0.1C20.5,18,20.5,18,20.4,17.9C20.5,17.9,20.5,17.9,20.4,17.9z M8.1,19.1
		C8.1,19.1,8.1,19,8.1,19.1C8,19,8,19,8.1,19.1C8,19.1,8,19.1,8.1,19.1C8.1,19.1,8.1,19.1,8.1,19.1z M6.5,14L6.5,14L6.5,14L6.5,14z
		 M15.8,2.8C15.8,2.8,15.7,2.8,15.8,2.8c-0.1,0-0.1,0-0.1,0C15.7,2.9,15.7,2.9,15.8,2.8C15.8,2.9,15.8,2.9,15.8,2.8z M5.2,19.6
		C5.2,19.6,5.2,19.6,5.2,19.6c-0.1,0-0.1,0-0.1,0C5.1,19.6,5.1,19.7,5.2,19.6C5.1,19.7,5.2,19.6,5.2,19.6z M12.4,15.4L12.4,15.4
		L12.4,15.4L12.4,15.4z M3.9,6.5L3.9,6.5L3.9,6.5L3.9,6.5z M2.6,5C2.5,4.9,2.5,4.9,2.6,5C2.5,5,2.5,5,2.6,5C2.5,5,2.5,5,2.6,5z
		 M19.4,15.7L19.4,15.7L19.4,15.7L19.4,15.7z M21.5,9.6C21.5,9.6,21.4,9.6,21.5,9.6C21.4,9.6,21.4,9.6,21.5,9.6
		C21.4,9.6,21.4,9.6,21.5,9.6C21.4,9.6,21.5,9.6,21.5,9.6z M20.5,8.7C20.5,8.7,20.5,8.8,20.5,8.7C20.5,8.8,20.5,8.8,20.5,8.7
		C20.5,8.8,20.5,8.7,20.5,8.7C20.5,8.7,20.5,8.7,20.5,8.7z M5.2,20.3L5.2,20.3L5.2,20.3L5.2,20.3z"/>
</g>
</svg>
